# xmcd
#
# Track frame offsets:
#	150
#	15913
#	43852
#	57385
#	77277
#	101581
#	121368
#	139571
#	164634
#	182673
#	217994
#	241744
#	259555
#
# Disc length: 3833 seconds
#
# Revision: 0
# Processed by: cddbd v1.5.2PL0 Copyright (c) Steve Scherf et al.
# Submitted via: audiograbber 1.83.01
#
DISCID=a10ef70d
DTITLE=Jackie Greene and Sal Valentino - Positively 12th and K, A Bob Dylan Tribute
DYEAR=2002
DGENRE=Folk Rock
TTITLE0=Subterranean Homesick Blues
TTITLE1=Isis
TTITLE2=Tonight, I'll Be Staying Here With You
TTITLE3=Highway 61 Revisited
TTITLE4=It's All Over, Now Baby Blue
TTITLE5=Can You Please Crawl Out Your Window
TTITLE6=Don't Think Twice, It's All Right
TTITLE7=Not Dark Yet
TTITLE8=Everything Is Broken
TTITLE9=Lonesome Day Blues
TTITLE10=Most Of The Time
TTITLE11=All Along The Watchtower
TTITLE12=I Shall Be Released
EXTD=
EXTT0=
EXTT1=
EXTT2=
EXTT3=
EXTT4=
EXTT5=
EXTT6=
EXTT7=
EXTT8=
EXTT9=
EXTT10=
EXTT11=
EXTT12=
PLAYORDER=
